<svg id="Layer_1" data-name="Layer 1" xmlns="http://www.w3.org/2000/svg" viewBox="0 0 354.16 406.18"><defs><style>.cls-1{fill:#fff;stroke-linecap:round;stroke-linejoin:round;}.cls-1,.cls-2,.cls-3{stroke:#000;}.cls-1,.cls-3{stroke-width:3px;}.cls-2,.cls-3{fill:none;}</style></defs><title>rain-rain</title><path class="cls-1" d="M351.94,274.74c1.45-15.7,1.4-37.41-7.07-51.68-6.58-11.08-13.76-18.24-29.24-19.67-1-.09-2.07-.14-3.12-.14a41.93,41.93,0,0,0-13.7,2.52q-9.13-13.82-19.9-19.9a.72.72,0,0,1,.27-1.34c11.34-1.55,20.61-7.88,24.86-17.31,8.36-18.53,6-29,1.7-41.83A101.18,101.18,0,0,1,302,112c-2-10-1.75-12.54-1.18-18.79.39-4.27.87-9.59.87-17.84,0-20.24-.73-38-9.64-50.26C283.82,13.79,270.07,7,255.28,7a32.12,32.12,0,0,0-19.37,5.9A28,28,0,0,0,217.18,5.4a25.06,25.06,0,0,0-15.93,5.74,41.29,41.29,0,0,0-8.17-5.41A36.53,36.53,0,0,0,176.63,1.5c-5.72,0-19.93,1.91-28.42,19.57-.58,1.21-1.14,2.35-1.68,3.44-3.9,7.92-8.78,17.83-6.54,29.77a22.26,22.26,0,0,0-9.45-4.4,23.2,23.2,0,0,0-4.77-.5c-8.87,0-15,4.79-19.13,8-.5.39-1.16.9-1.69,1.29a77,77,0,0,0-15,4.24A25.6,25.6,0,0,0,87,58.19a43.71,43.71,0,0,0-1.7-14.62l-.12-.42-.14-.41C81.14,30.89,69.52,25.5,60.4,25.5a21,21,0,0,0-3.75.34A23.49,23.49,0,0,0,44.11,32.5a32.56,32.56,0,0,0-13.22-2.86A27.69,27.69,0,0,0,4,49.27C-.85,64.57,2.22,73.91,6.09,82.91A37.16,37.16,0,0,1,9,91.69c1.36,7.47,1.92,11.12,2.51,15s1.23,8.1,2.7,16.16,2.4,12.24,3.28,16.21c.84,3.78,1.63,7.34,3,14.74.61,3.36.9,5.94,1.17,8.43,1.14,10.27,2.69,17.95,13.48,30.55a35.49,35.49,0,0,0,22.36,12.06c-.15.19-.3.37-.45.56-12.75,16.84-6.37,31.82-3.31,39,1.63,3.84,2.15,5.23,2,7A54.71,54.71,0,0,1,53,264a94,94,0,0,0-4.23,20.21,101.84,101.84,0,0,0-.41,20.26,62.79,62.79,0,0,1-.26,13.24c-.32,2.9-1.11,4.43-2.56,7.21-3.34,6.42-9.56,18.36-.21,36.47,6.3,12.2,16.75,19.19,28.67,19.19h0c9.09,0,17.92-4.28,24.87-12.06q1.24-1.39,2.33-2.74a61.65,61.65,0,0,0,7.37,15.5c11.35,17,29.52,17,37.28,17A58.37,58.37,0,0,0,168,394.26l1.45.58c4.6,1.85,8.94,3.59,14.53,3.59h0c7,0,11.95-2.79,15.94-5l1.79-1,5.79-3.19a41.48,41.48,0,0,0,3.48,4.63c5.95,6.88,15.13,10.83,25.21,10.83h0c15.61,0,29.21-8.74,33.85-21.74a46.6,46.6,0,0,0,2.16-8.29A28.27,28.27,0,0,0,288,366.33a33.12,33.12,0,0,0,27,13.77h0a29.69,29.69,0,0,0,26.25-15c9.94-17.51,9-27.89,6.53-40.65a110.41,110.41,0,0,1-1.9-13c-.62-7.75.06-9.92,1.55-14.69A96.33,96.33,0,0,0,351.94,274.74Z"/><path d="M71,178.76c-3.42,8.54-14.75,8-20.73,1-10.27-12-7.33-14-10.17-29.56s-3.42-15.42-6.25-31S31.5,103.63,28.67,88.1,18.31,70.32,23,55.25c2.49-7.93,13-6.89,18.21-.46,9.53,11.67,7,12.45,11.62,26.81.22-12,.2-18.15,3.3-24.22S56,46.29,60.24,45.51c.58-.11,4.87.56,5.87,3.56,2.57,9-1.15,10.87,2.68,19.39,4,2,4.23,6,2.27,7.23C64.2,80,55.44,83.84,54.29,92.17c-1.33,9.65-3.52,19.88-2,28.41C55,135,60.72,133.21,66.5,146.65,73,161.77,76.47,165.18,71,178.76Z"/><path class="cls-2" d="M71,178.76c-3.42,8.54-14.75,8-20.73,1-10.27-12-7.33-14-10.17-29.56s-3.42-15.42-6.25-31S31.5,103.63,28.67,88.1,18.31,70.32,23,55.25c2.49-7.93,13-6.89,18.21-.46,9.53,11.67,7,12.45,11.62,26.81.22-12,.2-18.15,3.3-24.22S56,46.29,60.24,45.51c.58-.11,4.87.56,5.87,3.56,2.57,9-1.15,10.87,2.68,19.39,4,2,4.23,6,2.27,7.23C64.2,80,55.44,83.84,54.29,92.17c-1.33,9.65-3.52,19.88-2,28.41C55,135,60.72,133.21,66.5,146.65,73,161.77,76.47,165.18,71,178.76Z"/><path class="cls-2" d="M71,178.76c-3.42,8.54-14.75,8-20.73,1-10.27-12-7.33-14-10.17-29.56s-3.42-15.42-6.25-31S31.5,103.63,28.67,88.1,18.31,70.32,23,55.25c2.49-7.93,13-6.89,18.21-.46,9.53,11.67,7,12.45,11.62,26.81.22-12,.2-18.15,3.3-24.22S56,46.29,60.24,45.51c.58-.11,4.87.56,5.87,3.56,2.57,9-1.15,10.87,2.68,19.39,4,2,4.23,6,2.27,7.23C64.2,80,55.44,83.84,54.29,92.17c-1.33,9.65-3.52,19.88-2,28.41C55,135,60.72,133.21,66.5,146.65,73,161.77,76.47,165.18,71,178.76Z"/><path d="M166.46,194c-6.79,5.53-6.89,2.54-15.46.78-2.91-7.26-5.94-11.8-7.93-20.93-1.46,19.33-8.55,32.53-21.83,34.95-8,1.45-18.2-.78-24.36-7.16s-8.35-17.52-10.35-28.51c-2.73-15-2.2-29.41,5.44-38.15,6.89-7.89,21.52-6.57,36.86-9.36,1.27-.23-1.17-4.95,1-5.26.24-4.75,5.35-5,4.5-9.69C132,97.76,122.92,96,111.59,98.08c-11,2-13.77,10-12.91,23.11-6.23,5.08-12.06-.14-18.77-4.56-1-10.49,2.1-18.5,6.92-26.28S99,80.05,110.4,78c6.19-1.13,11.82-9.41,16-8.52s4,11,7.35,14.27,5.43,5.59,7.28,9.87,5.2,10.59,7.14,21.25c2.55,14,.74,14.35,3.29,28.38s11.36,12.42,13.91,26.45C166.86,177.79,163.3,185.64,166.46,194Zm-30-59.9C113,138.32,98.84,151.32,102,168.62c.94,5.17,6.66,8.59,9.68,11.81s6.36,2.13,11.12,1.26c6.88-1.25,8.31-4.31,10.6-11.71s5.42-14.4,3.86-23C138.09,139.81,142,135.65,136.41,134.07Z"/><path class="cls-2" d="M166.46,194c-6.79,5.53-6.89,2.54-15.46.78-2.91-7.26-5.94-11.8-7.93-20.93-1.46,19.33-8.55,32.53-21.83,34.95-8,1.45-18.2-.78-24.36-7.16s-8.35-17.52-10.35-28.51c-2.73-15-2.2-29.41,5.44-38.15,6.89-7.89,21.52-6.57,36.86-9.36,1.27-.23-1.17-4.95,1-5.26.24-4.75,5.35-5,4.5-9.69C132,97.76,122.92,96,111.59,98.08c-11,2-13.77,10-12.91,23.11-6.23,5.08-12.06-.14-18.77-4.56-1-10.49,2.1-18.5,6.92-26.28S99,80.05,110.4,78c6.19-1.13,11.82-9.41,16-8.52s4,11,7.35,14.27,5.43,5.59,7.28,9.87,5.2,10.59,7.14,21.25c2.55,14,.74,14.35,3.29,28.38s11.36,12.42,13.91,26.45C166.86,177.79,163.3,185.64,166.46,194Zm-30-59.9C113,138.32,98.84,151.32,102,168.62c.94,5.17,6.66,8.59,9.68,11.81s6.36,2.13,11.12,1.26c6.88-1.25,8.31-4.31,10.6-11.71s5.42-14.4,3.86-23C138.09,139.81,142,135.65,136.41,134.07Z"/><path class="cls-2" d="M166.46,194c-6.79,5.53-6.89,2.54-15.46.78-2.91-7.26-5.94-11.8-7.93-20.93-1.46,19.33-8.55,32.53-21.83,34.95-8,1.45-18.2-.78-24.36-7.16s-8.35-17.52-10.35-28.51c-2.73-15-2.2-29.41,5.44-38.15,6.89-7.89,21.52-6.57,36.86-9.36,1.27-.23-1.17-4.95,1-5.26.24-4.75,5.35-5,4.5-9.69C132,97.76,122.92,96,111.59,98.08c-11,2-13.77,10-12.91,23.11-6.23,5.08-12.06-.14-18.77-4.56-1-10.49,2.1-18.5,6.92-26.28S99,80.05,110.4,78c6.19-1.13,11.82-9.41,16-8.52s4,11,7.35,14.27,5.43,5.59,7.28,9.87,5.2,10.59,7.14,21.25c2.55,14,.74,14.35,3.29,28.38s11.36,12.42,13.91,26.45C166.86,177.79,163.3,185.64,166.46,194Zm-30-59.9C113,138.32,98.84,151.32,102,168.62c.94,5.17,6.66,8.59,9.68,11.81s6.36,2.13,11.12,1.26c6.88-1.25,8.31-4.31,10.6-11.71s5.42-14.4,3.86-23C138.09,139.81,142,135.65,136.41,134.07Z"/><path d="M187.34,57c-4,8.29-17.05,10.56-22.72,3.31-9.12-11.68-4.8-17.26,1.61-30.62,4-8.29,9.62-10.28,17.83-6.14C198.32,30.79,193.76,43.68,187.34,57Zm15.19,140.18c-3.75,8.4-17.34,10.68-22.8,3.28-9.37-12.71,3.37-18,1.67-33.7s-7.5-15.07-9.2-30.76,4-16.31,2.3-32-9.8-15.76-3.37-30.18c3.75-8.4,9.34-9.4,14.79-2,9.37,12.71-.66,15.13,1,30.82s5.52,15.28,7.22,31,1,15.6,5.55,30.7C204.66,180.52,209,182.8,202.54,197.22Z"/><path class="cls-2" d="M187.34,57c-4,8.29-17.05,10.56-22.72,3.31-9.12-11.68-4.8-17.26,1.61-30.62,4-8.29,9.62-10.28,17.83-6.14C198.32,30.79,193.76,43.68,187.34,57Zm15.19,140.18c-3.75,8.4-17.34,10.68-22.8,3.28-9.37-12.71,3.37-18,1.67-33.7s-7.5-15.07-9.2-30.76,4-16.31,2.3-32-9.8-15.76-3.37-30.18c3.75-8.4,9.34-9.4,14.79-2,9.37,12.71-.66,15.13,1,30.82s5.52,15.28,7.22,31,1,15.6,5.55,30.7C204.66,180.52,209,182.8,202.54,197.22Z"/><path class="cls-2" d="M187.34,57c-4,8.29-17.05,10.56-22.72,3.31-9.12-11.68-4.8-17.26,1.61-30.62,4-8.29,9.62-10.28,17.83-6.14C198.32,30.79,193.76,43.68,187.34,57Zm15.19,140.18c-3.75,8.4-17.34,10.68-22.8,3.28-9.37-12.71,3.37-18,1.67-33.7s-7.5-15.07-9.2-30.76,4-16.31,2.3-32-9.8-15.76-3.37-30.18c3.75-8.4,9.34-9.4,14.79-2,9.37,12.71-.66,15.13,1,30.82s5.52,15.28,7.22,31,1,15.6,5.55,30.7C204.66,180.52,209,182.8,202.54,197.22Z"/><path d="M285.81,159c-3.78,8.38-21.93,7.62-25.82-.72-8.34-17.88,4.43-21.06,4.43-40.79S258.31,97.76,258.31,78c0-8.33-.94-12.1-3.41-16.31s-1.2-4.05-4.7-4.05c-4.79,0-4.69.86-8.29,7.37S228,79,228,92c0,16.22,4.26,16.22,4.26,32.45s4.33,16.26-3.67,30.38c-4.54,8-13.69,12.1-18.32,4.16-7.95-13.64,2.83-17.87,2.83-33.66s-.76-15.78-.76-31.57S213,78,213,62.22s-8.77-18.79-1.36-32.73c3.94-7.41,10.79-3.83,15,3.45,7.28,12.69-.62,12.21,8,24C240.49,35.7,244.68,27,255.28,27c7.15,0,15.52,2.88,20.6,9.89s5.83,20.93,5.83,38.52c0,20.38-3.28,20.55.7,40.53C286.74,137.72,294.2,140.42,285.81,159Z"/><path class="cls-2" d="M285.81,159c-3.78,8.38-21.93,7.62-25.82-.72-8.34-17.88,4.43-21.06,4.43-40.79S258.31,97.76,258.31,78c0-8.33-.94-12.1-3.41-16.31s-1.2-4.05-4.7-4.05c-4.79,0-4.69.86-8.29,7.37S228,79,228,92c0,16.22,4.26,16.22,4.26,32.45s4.33,16.26-3.67,30.38c-4.54,8-13.69,12.1-18.32,4.16-7.95-13.64,2.83-17.87,2.83-33.66s-.76-15.78-.76-31.57S213,78,213,62.22s-8.77-18.79-1.36-32.73c3.94-7.41,10.79-3.83,15,3.45,7.28,12.69-.62,12.21,8,24C240.49,35.7,244.68,27,255.28,27c7.15,0,15.52,2.88,20.6,9.89s5.83,20.93,5.83,38.52c0,20.38-3.28,20.55.7,40.53C286.74,137.72,294.2,140.42,285.81,159Z"/><path class="cls-2" d="M285.81,159c-3.78,8.38-21.93,7.62-25.82-.72-8.34-17.88,4.43-21.06,4.43-40.79S258.31,97.76,258.31,78c0-8.33-.94-12.1-3.41-16.31s-1.2-4.05-4.7-4.05c-4.79,0-4.69.86-8.29,7.37S228,79,228,92c0,16.22,4.26,16.22,4.26,32.45s4.33,16.26-3.67,30.38c-4.54,8-13.69,12.1-18.32,4.16-7.95-13.64,2.83-17.87,2.83-33.66s-.76-15.78-.76-31.57S213,78,213,62.22s-8.77-18.79-1.36-32.73c3.94-7.41,10.79-3.83,15,3.45,7.28,12.69-.62,12.21,8,24C240.49,35.7,244.68,27,255.28,27c7.15,0,15.52,2.88,20.6,9.89s5.83,20.93,5.83,38.52c0,20.38-3.28,20.55.7,40.53C286.74,137.72,294.2,140.42,285.81,159Z"/><path d="M84,355.22c-7.37,8.24-15.78,6.85-20.85-3-7.65-14.83,3.07-15.75,4.88-32.34s-1.14-16.91.67-33.5,5.07-16.24,6.88-32.83S62.89,230.77,73,217.46c6-8,15.56-2.51,19.92,6.47,7,14.33-3.74,14.2-3.15,30.12,4.17-12,14.63-18.12,20.2-23.27s8.66-11.43,13.87-10.86c.71.08-.38,1.43.83,1.65-1.15,16.15,4.14,17.13-2.8,31.76-11.18-1.22-15.37,4.69-20.06,14s-12.14,17-13.14,26.15c-1.68,15.37-.56,15.41.55,30.84C90.33,340.46,94.27,343.69,84,355.22Z"/><path class="cls-2" d="M84,355.22c-7.37,8.24-15.78,6.85-20.85-3-7.65-14.83,3.07-15.75,4.88-32.34s-1.14-16.91.67-33.5,5.07-16.24,6.88-32.83S62.89,230.77,73,217.46c6-8,15.56-2.51,19.92,6.47,7,14.33-3.74,14.2-3.15,30.12,4.17-12,14.63-18.12,20.2-23.27s8.66-11.43,13.87-10.86c.71.08-.38,1.43.83,1.65-1.15,16.15,4.14,17.13-2.8,31.76-11.18-1.22-15.37,4.69-20.06,14s-12.14,17-13.14,26.15c-1.68,15.37-.56,15.41.55,30.84C90.33,340.46,94.27,343.69,84,355.22Z"/><path class="cls-2" d="M84,355.22c-7.37,8.24-15.78,6.85-20.85-3-7.65-14.83,3.07-15.75,4.88-32.34s-1.14-16.91.67-33.5,5.07-16.24,6.88-32.83S62.89,230.77,73,217.46c6-8,15.56-2.51,19.92,6.47,7,14.33-3.74,14.2-3.15,30.12,4.17-12,14.63-18.12,20.2-23.27s8.66-11.43,13.87-10.86c.71.08-.38,1.43.83,1.65-1.15,16.15,4.14,17.13-2.8,31.76-11.18-1.22-15.37,4.69-20.06,14s-12.14,17-13.14,26.15c-1.68,15.37-.56,15.41.55,30.84C90.33,340.46,94.27,343.69,84,355.22Z"/><path d="M192.1,374.88c-7.67,4.22-7,4.67-15.16,1.4-1.56-7.67.83-12.3.5-21.64-4.9,18.76-18.09,23.69-31.59,23.69-8.12,0-15.72-.74-20.64-8.12s-7.59-17.36-7.59-28.54c0-15.25,4.23-28.48,13.31-35.71,8.19-6.53,21.67-10.47,37.26-10.47,1.29,0,7.69,3.8,9.89,3.88,1.08-4.63-6.76-5.84-6.76-10.59,0-13.09-3.64-18.73-15.15-18.73-11.19,0-19.13,2.75-20.63,15.84-7,3.88-9.09,5.69-14.9.14.86-10.5,2.38-22.58,8.51-29.37S147,245.6,158.6,245.6c6.29,0,13.16,0,17.14,1.63s3.88,9.83,6.62,13.71,3.85,7.44,4.9,12,1.23,11.65,1.23,22.49c0,14.25,2.08,14.25,2.08,28.51s4.65,14.25,4.65,28.51C195.23,360.68,190.48,366.13,192.1,374.88ZM175,310.53c-23.77,0-39,11.93-39,29.52,0,5.25,6.82,7.26,9.21,11s2.18,10.27,7,10.27c7,0,11.13-6.26,14.71-13.14a49.2,49.2,0,0,0,5.29-23.24C174.71,317.22,180.21,313.09,175,310.53Z"/><path class="cls-2" d="M192.1,374.88c-7.67,4.22-7,4.67-15.16,1.4-1.56-7.67.83-12.3.5-21.64-4.9,18.76-18.09,23.69-31.59,23.69-8.12,0-15.72-.74-20.64-8.12s-7.59-17.36-7.59-28.54c0-15.25,4.23-28.48,13.31-35.71,8.19-6.53,21.67-10.47,37.26-10.47,1.29,0,7.69,3.8,9.89,3.88,1.08-4.63-6.76-5.84-6.76-10.59,0-13.09-3.64-18.73-15.15-18.73-11.19,0-19.13,2.75-20.63,15.84-7,3.88-9.09,5.69-14.9.14.86-10.5,2.38-22.58,8.51-29.37S147,245.6,158.6,245.6c6.29,0,13.16,0,17.14,1.63s3.88,9.83,6.62,13.71,3.85,7.44,4.9,12,1.23,11.65,1.23,22.49c0,14.25,2.08,14.25,2.08,28.51s4.65,14.25,4.65,28.51C195.23,360.68,190.48,366.13,192.1,374.88ZM175,310.53c-23.77,0-39,11.93-39,29.52,0,5.25,6.82,7.26,9.21,11s2.18,10.27,7,10.27c7,0,11.13-6.26,14.71-13.14a49.2,49.2,0,0,0,5.29-23.24C174.71,317.22,180.21,313.09,175,310.53Z"/><path class="cls-2" d="M192.1,374.88c-7.67,4.22-7,4.67-15.16,1.4-1.56-7.67.83-12.3.5-21.64-4.9,18.76-18.09,23.69-31.59,23.69-8.12,0-15.72-.74-20.64-8.12s-7.59-17.36-7.59-28.54c0-15.25,4.23-28.48,13.31-35.71,8.19-6.53,21.67-10.47,37.26-10.47,1.29,0,7.69,3.8,9.89,3.88,1.08-4.63-6.76-5.84-6.76-10.59,0-13.09-3.64-18.73-15.15-18.73-11.19,0-19.13,2.75-20.63,15.84-7,3.88-9.09,5.69-14.9.14.86-10.5,2.38-22.58,8.51-29.37S147,245.6,158.6,245.6c6.29,0,13.16,0,17.14,1.63s3.88,9.83,6.62,13.71,3.85,7.44,4.9,12,1.23,11.65,1.23,22.49c0,14.25,2.08,14.25,2.08,28.51s4.65,14.25,4.65,28.51C195.23,360.68,190.48,366.13,192.1,374.88ZM175,310.53c-23.77,0-39,11.93-39,29.52,0,5.25,6.82,7.26,9.21,11s2.18,10.27,7,10.27c7,0,11.13-6.26,14.71-13.14a49.2,49.2,0,0,0,5.29-23.24C174.71,317.22,180.21,313.09,175,310.53Z"/><path d="M225.27,237.69c-3.33,8.57-18.77,11.31-25,4.52-10-10.94-4.56-16.7.81-30.51,3.33-8.57,6-7.68,14.55-4.18C231.16,213.87,230.63,223.88,225.27,237.69Zm26,138.53c-3.09,8.66-19.08,11.51-25.09,4.55-10.32-11.95,3.61-18.77.71-34.28s-5.89-15-8.79-30.47-1.8-15.72-4.7-31.24-10.3-15-5-29.86c3.09-8.66,7-8.93,13-2,10.32,11.95,3.79,13.56,6.69,29.08s9.14,14.35,12,29.86-7,18.25-.73,32.76C246.36,360.86,256.54,361.35,251.24,376.22Z"/><path class="cls-2" d="M225.27,237.69c-3.33,8.57-18.77,11.31-25,4.52-10-10.94-4.56-16.7.81-30.51,3.33-8.57,6-7.68,14.55-4.18C231.16,213.87,230.63,223.88,225.27,237.69Zm26,138.53c-3.09,8.66-19.08,11.51-25.09,4.55-10.32-11.95,3.61-18.77.71-34.28s-5.89-15-8.79-30.47-1.8-15.72-4.7-31.24-10.3-15-5-29.86c3.09-8.66,7-8.93,13-2,10.32,11.95,3.79,13.56,6.69,29.08s9.14,14.35,12,29.86-7,18.25-.73,32.76C246.36,360.86,256.54,361.35,251.24,376.22Z"/><path class="cls-2" d="M225.27,237.69c-3.33,8.57-18.77,11.31-25,4.52-10-10.94-4.56-16.7.81-30.51,3.33-8.57,6-7.68,14.55-4.18C231.16,213.87,230.63,223.88,225.27,237.69Zm26,138.53c-3.09,8.66-19.08,11.51-25.09,4.55-10.32-11.95,3.61-18.77.71-34.28s-5.89-15-8.79-30.47-1.8-15.72-4.7-31.24-10.3-15-5-29.86c3.09-8.66,7-8.93,13-2,10.32,11.95,3.79,13.56,6.69,29.08s9.14,14.35,12,29.86-7,18.25-.73,32.76C246.36,360.86,256.54,361.35,251.24,376.22Z"/><path d="M323.83,355.27c-4.54,8-17.86,5.46-21-3.2-6.65-18.57,1.39-19.68,3.2-39.32s.2-19.79,2-39.43c.77-8.3-.46-13.25-2.53-17.66s-2.52-5-6-5.36c-4.77-.44-8.15,0-12.33,6.13s-9.84,15-11,28c-1.49,16.15-3.21,16-4.7,32.15s12.58,21.05,3.31,34.37c-5.25,7.55-14.52,3.76-18.63-4.47-7.85-15.72,1.81-16.51,1.77-34.09s-2.8-17.57-2.83-35.14.14-17.58.1-35.15-17.93-28.2-3.25-37.86c13.78-9.06,25,3.17,33.21,17.5,7.24,12.71-16.42,20.22-8.89,32.77,7.79-20.63,27-32.19,37.53-31.21,7.12.66,9.46,2.52,13.88,10s6,22.11,4.35,39.63c-1.88,20.29-7.73,19.89-6.11,40.2C327.65,334.68,333.89,337.55,323.83,355.27Z"/><path class="cls-2" d="M323.83,355.27c-4.54,8-17.86,5.46-21-3.2-6.65-18.57,1.39-19.68,3.2-39.32s.2-19.79,2-39.43c.77-8.3-.46-13.25-2.53-17.66s-2.52-5-6-5.36c-4.77-.44-8.15,0-12.33,6.13s-9.84,15-11,28c-1.49,16.15-3.21,16-4.7,32.15s12.58,21.05,3.31,34.37c-5.25,7.55-14.52,3.76-18.63-4.47-7.85-15.72,1.81-16.51,1.77-34.09s-2.8-17.57-2.83-35.14.14-17.58.1-35.15-17.93-28.2-3.25-37.86c13.78-9.06,25,3.17,33.21,17.5,7.24,12.71-16.42,20.22-8.89,32.77,7.79-20.63,27-32.19,37.53-31.21,7.12.66,9.46,2.52,13.88,10s6,22.11,4.35,39.63c-1.88,20.29-7.73,19.89-6.11,40.2C327.65,334.68,333.89,337.55,323.83,355.27Z"/><path class="cls-2" d="M323.83,355.27c-4.54,8-17.86,5.46-21-3.2-6.65-18.57,1.39-19.68,3.2-39.32s.2-19.79,2-39.43c.77-8.3-.46-13.25-2.53-17.66s-2.52-5-6-5.36c-4.77-.44-8.15,0-12.33,6.13s-9.84,15-11,28c-1.49,16.15-3.21,16-4.7,32.15s12.58,21.05,3.31,34.37c-5.25,7.55-14.52,3.76-18.63-4.47-7.85-15.72,1.81-16.51,1.77-34.09s-2.8-17.57-2.83-35.14.14-17.58.1-35.15-17.93-28.2-3.25-37.86c13.78-9.06,25,3.17,33.21,17.5,7.24,12.71-16.42,20.22-8.89,32.77,7.79-20.63,27-32.19,37.53-31.21,7.12.66,9.46,2.52,13.88,10s6,22.11,4.35,39.63c-1.88,20.29-7.73,19.89-6.11,40.2C327.65,334.68,333.89,337.55,323.83,355.27Z"/><path class="cls-3" d="M71,178.76c-3.42,8.54-14.75,8-20.73,1-10.27-12-7.33-14-10.17-29.56s-3.42-15.42-6.25-31S31.5,103.63,28.67,88.1,18.31,70.32,23,55.25c2.49-7.93,13-6.89,18.21-.46,9.53,11.67,7,12.45,11.62,26.81.22-12,.2-18.15,3.3-24.22S56,46.29,60.24,45.51c.58-.11,4.87.56,5.87,3.56,2.57,9-1.15,10.87,2.68,19.39,4,2,4.23,6,2.27,7.23C64.2,80,55.44,83.84,54.29,92.17c-1.33,9.65-3.52,19.88-2,28.41C55,135,60.72,133.21,66.5,146.65,73,161.77,76.47,165.18,71,178.76Z"/><path class="cls-3" d="M71,178.76c-3.42,8.54-14.75,8-20.73,1-10.27-12-7.33-14-10.17-29.56s-3.42-15.42-6.25-31S31.5,103.63,28.67,88.1,18.31,70.32,23,55.25c2.49-7.93,13-6.89,18.21-.46,9.53,11.67,7,12.45,11.62,26.81.22-12,.2-18.15,3.3-24.22S56,46.29,60.24,45.51c.58-.11,4.87.56,5.87,3.56,2.57,9-1.15,10.87,2.68,19.39,4,2,4.23,6,2.27,7.23C64.2,80,55.44,83.84,54.29,92.17c-1.33,9.65-3.52,19.88-2,28.41C55,135,60.72,133.21,66.5,146.65,73,161.77,76.47,165.18,71,178.76Z"/><path class="cls-3" d="M71,178.76c-3.42,8.54-14.75,8-20.73,1-10.27-12-7.33-14-10.17-29.56s-3.42-15.42-6.25-31S31.5,103.63,28.67,88.1,18.31,70.32,23,55.25c2.49-7.93,13-6.89,18.21-.46,9.53,11.67,7,12.45,11.62,26.81.22-12,.2-18.15,3.3-24.22S56,46.29,60.24,45.51c.58-.11,4.87.56,5.87,3.56,2.57,9-1.15,10.87,2.68,19.39,4,2,4.23,6,2.27,7.23C64.2,80,55.44,83.84,54.29,92.17c-1.33,9.65-3.52,19.88-2,28.41C55,135,60.72,133.21,66.5,146.65,73,161.77,76.47,165.18,71,178.76Z"/><path class="cls-3" d="M166.46,194c-6.79,5.53-6.89,2.54-15.46.78-2.91-7.26-5.94-11.8-7.93-20.93-1.46,19.33-8.55,32.53-21.83,34.95-8,1.45-18.2-.78-24.36-7.16s-8.35-17.52-10.35-28.51c-2.73-15-2.2-29.41,5.44-38.15,6.89-7.89,21.52-6.57,36.86-9.36,1.27-.23-1.17-4.95,1-5.26.24-4.75,5.35-5,4.5-9.69C132,97.76,122.92,96,111.59,98.08c-11,2-13.77,10-12.91,23.11-6.23,5.08-12.06-.14-18.77-4.56-1-10.49,2.1-18.5,6.92-26.28S99,80.05,110.4,78c6.19-1.13,11.82-9.41,16-8.52s4,11,7.35,14.27,5.43,5.59,7.28,9.87,5.2,10.59,7.14,21.25c2.55,14,.74,14.35,3.29,28.38s11.36,12.42,13.91,26.45C166.86,177.79,163.3,185.64,166.46,194Zm-30-59.9C113,138.32,98.84,151.32,102,168.62c.94,5.17,6.66,8.59,9.68,11.81s6.36,2.13,11.12,1.26c6.88-1.25,8.31-4.31,10.6-11.71s5.42-14.4,3.86-23C138.09,139.81,142,135.65,136.41,134.07Z"/><path class="cls-3" d="M166.46,194c-6.79,5.53-6.89,2.54-15.46.78-2.91-7.26-5.94-11.8-7.93-20.93-1.46,19.33-8.55,32.53-21.83,34.95-8,1.45-18.2-.78-24.36-7.16s-8.35-17.52-10.35-28.51c-2.73-15-2.2-29.41,5.44-38.15,6.89-7.89,21.52-6.57,36.86-9.36,1.27-.23-1.17-4.95,1-5.26.24-4.75,5.35-5,4.5-9.69C132,97.76,122.92,96,111.59,98.08c-11,2-13.77,10-12.91,23.11-6.23,5.08-12.06-.14-18.77-4.56-1-10.49,2.1-18.5,6.92-26.28S99,80.05,110.4,78c6.19-1.13,11.82-9.41,16-8.52s4,11,7.35,14.27,5.43,5.59,7.28,9.87,5.2,10.59,7.14,21.25c2.55,14,.74,14.35,3.29,28.38s11.36,12.42,13.91,26.45C166.86,177.79,163.3,185.64,166.46,194Zm-30-59.9C113,138.32,98.84,151.32,102,168.62c.94,5.17,6.66,8.59,9.68,11.81s6.36,2.13,11.12,1.26c6.88-1.25,8.31-4.31,10.6-11.71s5.42-14.4,3.86-23C138.09,139.81,142,135.65,136.41,134.07Z"/><path class="cls-3" d="M166.46,194c-6.79,5.53-6.89,2.54-15.46.78-2.91-7.26-5.94-11.8-7.93-20.93-1.46,19.33-8.55,32.53-21.83,34.95-8,1.45-18.2-.78-24.36-7.16s-8.35-17.52-10.35-28.51c-2.73-15-2.2-29.41,5.44-38.15,6.89-7.89,21.52-6.57,36.86-9.36,1.27-.23-1.17-4.95,1-5.26.24-4.75,5.35-5,4.5-9.69C132,97.76,122.92,96,111.59,98.08c-11,2-13.77,10-12.91,23.11-6.23,5.08-12.06-.14-18.77-4.56-1-10.49,2.1-18.5,6.92-26.28S99,80.05,110.4,78c6.19-1.13,11.82-9.41,16-8.52s4,11,7.35,14.27,5.43,5.59,7.28,9.87,5.2,10.59,7.14,21.25c2.55,14,.74,14.35,3.29,28.38s11.36,12.42,13.91,26.45C166.86,177.79,163.3,185.64,166.46,194Zm-30-59.9C113,138.32,98.84,151.32,102,168.62c.94,5.17,6.66,8.59,9.68,11.81s6.36,2.13,11.12,1.26c6.88-1.25,8.31-4.31,10.6-11.71s5.42-14.4,3.86-23C138.09,139.81,142,135.65,136.41,134.07Z"/><path class="cls-3" d="M187.34,57c-4,8.29-17.05,10.56-22.72,3.31-9.12-11.68-4.8-17.26,1.61-30.62,4-8.29,9.62-10.28,17.83-6.14C198.32,30.79,193.76,43.68,187.34,57Zm15.19,140.18c-3.75,8.4-17.34,10.68-22.8,3.28-9.37-12.71,3.37-18,1.67-33.7s-7.5-15.07-9.2-30.76,4-16.31,2.3-32-9.8-15.76-3.37-30.18c3.75-8.4,9.34-9.4,14.79-2,9.37,12.71-.66,15.13,1,30.82s5.52,15.28,7.22,31,1,15.6,5.55,30.7C204.66,180.52,209,182.8,202.54,197.22Z"/><path class="cls-3" d="M187.34,57c-4,8.29-17.05,10.56-22.72,3.31-9.12-11.68-4.8-17.26,1.61-30.62,4-8.29,9.62-10.28,17.83-6.14C198.32,30.79,193.76,43.68,187.34,57Zm15.19,140.18c-3.75,8.4-17.34,10.68-22.8,3.28-9.37-12.71,3.37-18,1.67-33.7s-7.5-15.07-9.2-30.76,4-16.31,2.3-32-9.8-15.76-3.37-30.18c3.75-8.4,9.34-9.4,14.79-2,9.37,12.71-.66,15.13,1,30.82s5.52,15.28,7.22,31,1,15.6,5.55,30.7C204.66,180.52,209,182.8,202.54,197.22Z"/><path class="cls-3" d="M187.34,57c-4,8.29-17.05,10.56-22.72,3.31-9.12-11.68-4.8-17.26,1.61-30.62,4-8.29,9.62-10.28,17.83-6.14C198.32,30.79,193.76,43.68,187.34,57Zm15.19,140.18c-3.75,8.4-17.34,10.68-22.8,3.28-9.37-12.71,3.37-18,1.67-33.7s-7.5-15.07-9.2-30.76,4-16.31,2.3-32-9.8-15.76-3.37-30.18c3.75-8.4,9.34-9.4,14.79-2,9.37,12.71-.66,15.13,1,30.82s5.52,15.28,7.22,31,1,15.6,5.55,30.7C204.66,180.52,209,182.8,202.54,197.22Z"/><path class="cls-3" d="M285.81,159c-3.78,8.38-21.93,7.62-25.82-.72-8.34-17.88,4.43-21.06,4.43-40.79S258.31,97.76,258.31,78c0-8.33-.94-12.1-3.41-16.31s-1.2-4.05-4.7-4.05c-4.79,0-4.69.86-8.29,7.37S228,79,228,92c0,16.22,4.26,16.22,4.26,32.45s4.33,16.26-3.67,30.38c-4.54,8-13.69,12.1-18.32,4.16-7.95-13.64,2.83-17.87,2.83-33.66s-.76-15.78-.76-31.57S213,78,213,62.22s-8.77-18.79-1.36-32.73c3.94-7.41,10.79-3.83,15,3.45,7.28,12.69-.62,12.21,8,24C240.49,35.7,244.68,27,255.28,27c7.15,0,15.52,2.88,20.6,9.89s5.83,20.93,5.83,38.52c0,20.38-3.28,20.55.7,40.53C286.74,137.72,294.2,140.42,285.81,159Z"/><path class="cls-3" d="M285.81,159c-3.78,8.38-21.93,7.62-25.82-.72-8.34-17.88,4.43-21.06,4.43-40.79S258.31,97.76,258.31,78c0-8.33-.94-12.1-3.41-16.31s-1.2-4.05-4.7-4.05c-4.79,0-4.69.86-8.29,7.37S228,79,228,92c0,16.22,4.26,16.22,4.26,32.45s4.33,16.26-3.67,30.38c-4.54,8-13.69,12.1-18.32,4.16-7.95-13.64,2.83-17.87,2.83-33.66s-.76-15.78-.76-31.57S213,78,213,62.22s-8.77-18.79-1.36-32.73c3.94-7.41,10.79-3.83,15,3.45,7.28,12.69-.62,12.21,8,24C240.49,35.7,244.68,27,255.28,27c7.15,0,15.52,2.88,20.6,9.89s5.83,20.93,5.83,38.52c0,20.38-3.28,20.55.7,40.53C286.74,137.72,294.2,140.42,285.81,159Z"/><path class="cls-3" d="M285.81,159c-3.78,8.38-21.93,7.62-25.82-.72-8.34-17.88,4.43-21.06,4.43-40.79S258.31,97.76,258.31,78c0-8.33-.94-12.1-3.41-16.31s-1.2-4.05-4.7-4.05c-4.79,0-4.69.86-8.29,7.37S228,79,228,92c0,16.22,4.26,16.22,4.26,32.45s4.33,16.26-3.67,30.38c-4.54,8-13.69,12.1-18.32,4.16-7.95-13.64,2.83-17.87,2.83-33.66s-.76-15.78-.76-31.57S213,78,213,62.22s-8.77-18.79-1.36-32.73c3.94-7.41,10.79-3.83,15,3.45,7.28,12.69-.62,12.21,8,24C240.49,35.7,244.68,27,255.28,27c7.15,0,15.52,2.88,20.6,9.89s5.83,20.93,5.83,38.52c0,20.38-3.28,20.55.7,40.53C286.74,137.72,294.2,140.42,285.81,159Z"/><path class="cls-3" d="M84,355.22c-7.37,8.24-15.78,6.85-20.85-3-7.65-14.83,3.07-15.75,4.88-32.34s-1.14-16.91.67-33.5,5.07-16.24,6.88-32.83S62.89,230.77,73,217.46c6-8,15.56-2.51,19.92,6.47,7,14.33-3.74,14.2-3.15,30.12,4.17-12,14.63-18.12,20.2-23.27s8.66-11.43,13.87-10.86c.71.08-.38,1.43.83,1.65-1.15,16.15,4.14,17.13-2.8,31.76-11.18-1.22-15.37,4.69-20.06,14s-12.14,17-13.14,26.15c-1.68,15.37-.56,15.41.55,30.84C90.33,340.46,94.27,343.69,84,355.22Z"/><path class="cls-3" d="M84,355.22c-7.37,8.24-15.78,6.85-20.85-3-7.65-14.83,3.07-15.75,4.88-32.34s-1.14-16.91.67-33.5,5.07-16.24,6.88-32.83S62.89,230.77,73,217.46c6-8,15.56-2.51,19.92,6.47,7,14.33-3.74,14.2-3.15,30.12,4.17-12,14.63-18.12,20.2-23.27s8.66-11.43,13.87-10.86c.71.08-.38,1.43.83,1.65-1.15,16.15,4.14,17.13-2.8,31.76-11.18-1.22-15.37,4.69-20.06,14s-12.14,17-13.14,26.15c-1.68,15.37-.56,15.41.55,30.84C90.33,340.46,94.27,343.69,84,355.22Z"/><path class="cls-3" d="M84,355.22c-7.37,8.24-15.78,6.85-20.85-3-7.65-14.83,3.07-15.75,4.88-32.34s-1.14-16.91.67-33.5,5.07-16.24,6.88-32.83S62.89,230.77,73,217.46c6-8,15.56-2.51,19.92,6.47,7,14.33-3.74,14.2-3.15,30.12,4.17-12,14.63-18.12,20.2-23.27s8.66-11.43,13.87-10.86c.71.08-.38,1.43.83,1.65-1.15,16.15,4.14,17.13-2.8,31.76-11.18-1.22-15.37,4.69-20.06,14s-12.14,17-13.14,26.15c-1.68,15.37-.56,15.41.55,30.84C90.33,340.46,94.27,343.69,84,355.22Z"/><path class="cls-3" d="M192.1,374.88c-7.67,4.22-7,4.67-15.16,1.4-1.56-7.67.83-12.3.5-21.64-4.9,18.76-18.09,23.69-31.59,23.69-8.12,0-15.72-.74-20.64-8.12s-7.59-17.36-7.59-28.54c0-15.25,4.23-28.48,13.31-35.71,8.19-6.53,21.67-10.47,37.26-10.47,1.29,0,7.69,3.8,9.89,3.88,1.08-4.63-6.76-5.84-6.76-10.59,0-13.09-3.64-18.73-15.15-18.73-11.19,0-19.13,2.75-20.63,15.84-7,3.88-9.09,5.69-14.9.14.86-10.5,2.38-22.58,8.51-29.37S147,245.6,158.6,245.6c6.29,0,13.16,0,17.14,1.63s3.88,9.83,6.62,13.71,3.85,7.44,4.9,12,1.23,11.65,1.23,22.49c0,14.25,2.08,14.25,2.08,28.51s4.65,14.25,4.65,28.51C195.23,360.68,190.48,366.13,192.1,374.88ZM175,310.53c-23.77,0-39,11.93-39,29.52,0,5.25,6.82,7.26,9.21,11s2.18,10.27,7,10.27c7,0,11.13-6.26,14.71-13.14a49.2,49.2,0,0,0,5.29-23.24C174.71,317.22,180.21,313.09,175,310.53Z"/><path class="cls-3" d="M192.1,374.88c-7.67,4.22-7,4.67-15.16,1.4-1.56-7.67.83-12.3.5-21.64-4.9,18.76-18.09,23.69-31.59,23.69-8.12,0-15.72-.74-20.64-8.12s-7.59-17.36-7.59-28.54c0-15.25,4.23-28.48,13.31-35.71,8.19-6.53,21.67-10.47,37.26-10.47,1.29,0,7.69,3.8,9.89,3.88,1.08-4.63-6.76-5.84-6.76-10.59,0-13.09-3.64-18.73-15.15-18.73-11.19,0-19.13,2.75-20.63,15.84-7,3.88-9.09,5.69-14.9.14.86-10.5,2.38-22.58,8.51-29.37S147,245.6,158.6,245.6c6.29,0,13.16,0,17.14,1.63s3.88,9.83,6.62,13.71,3.85,7.44,4.9,12,1.23,11.65,1.23,22.49c0,14.25,2.08,14.25,2.08,28.51s4.65,14.25,4.65,28.51C195.23,360.68,190.48,366.13,192.1,374.88ZM175,310.53c-23.77,0-39,11.93-39,29.52,0,5.25,6.82,7.26,9.21,11s2.18,10.27,7,10.27c7,0,11.13-6.26,14.71-13.14a49.2,49.2,0,0,0,5.29-23.24C174.71,317.22,180.21,313.09,175,310.53Z"/><path class="cls-3" d="M192.1,374.88c-7.67,4.22-7,4.67-15.16,1.4-1.56-7.67.83-12.3.5-21.64-4.9,18.76-18.09,23.69-31.59,23.69-8.12,0-15.72-.74-20.64-8.12s-7.59-17.36-7.59-28.54c0-15.25,4.23-28.48,13.31-35.71,8.19-6.53,21.67-10.47,37.26-10.47,1.29,0,7.69,3.8,9.89,3.88,1.08-4.63-6.76-5.84-6.76-10.59,0-13.09-3.64-18.73-15.15-18.73-11.19,0-19.13,2.75-20.63,15.84-7,3.88-9.09,5.69-14.9.14.86-10.5,2.38-22.58,8.51-29.37S147,245.6,158.6,245.6c6.29,0,13.16,0,17.14,1.63s3.88,9.83,6.62,13.71,3.85,7.44,4.9,12,1.23,11.65,1.23,22.49c0,14.25,2.08,14.25,2.08,28.51s4.65,14.25,4.65,28.51C195.23,360.68,190.48,366.13,192.1,374.88ZM175,310.53c-23.77,0-39,11.93-39,29.52,0,5.25,6.82,7.26,9.21,11s2.18,10.27,7,10.27c7,0,11.13-6.26,14.71-13.14a49.2,49.2,0,0,0,5.29-23.24C174.71,317.22,180.21,313.09,175,310.53Z"/><path class="cls-3" d="M225.27,237.69c-3.33,8.57-18.77,11.31-25,4.52-10-10.94-4.56-16.7.81-30.51,3.33-8.57,6-7.68,14.55-4.18C231.16,213.87,230.63,223.88,225.27,237.69Zm26,138.53c-3.09,8.66-19.08,11.51-25.09,4.55-10.32-11.95,3.61-18.77.71-34.28s-5.89-15-8.79-30.47-1.8-15.72-4.7-31.24-10.3-15-5-29.86c3.09-8.66,7-8.93,13-2,10.32,11.95,3.79,13.56,6.69,29.08s9.14,14.35,12,29.86-7,18.25-.73,32.76C246.36,360.86,256.54,361.35,251.24,376.22Z"/><path class="cls-3" d="M225.27,237.69c-3.33,8.57-18.77,11.31-25,4.52-10-10.94-4.56-16.7.81-30.51,3.33-8.57,6-7.68,14.55-4.18C231.16,213.87,230.63,223.88,225.27,237.69Zm26,138.53c-3.09,8.66-19.08,11.51-25.09,4.55-10.32-11.95,3.61-18.77.71-34.28s-5.89-15-8.79-30.47-1.8-15.72-4.7-31.24-10.3-15-5-29.86c3.09-8.66,7-8.93,13-2,10.32,11.95,3.79,13.56,6.69,29.08s9.14,14.35,12,29.86-7,18.25-.73,32.76C246.36,360.86,256.54,361.35,251.24,376.22Z"/><path class="cls-3" d="M225.27,237.69c-3.33,8.57-18.77,11.31-25,4.52-10-10.94-4.56-16.7.81-30.51,3.33-8.57,6-7.68,14.55-4.18C231.16,213.87,230.63,223.88,225.27,237.69Zm26,138.53c-3.09,8.66-19.08,11.51-25.09,4.55-10.32-11.95,3.61-18.77.71-34.28s-5.89-15-8.79-30.47-1.8-15.72-4.7-31.24-10.3-15-5-29.86c3.09-8.66,7-8.93,13-2,10.32,11.95,3.79,13.56,6.69,29.08s9.14,14.35,12,29.86-7,18.25-.73,32.76C246.36,360.86,256.54,361.35,251.24,376.22Z"/><path class="cls-3" d="M323.83,355.27c-4.54,8-17.86,5.46-21-3.2-6.65-18.57,1.39-19.68,3.2-39.32s.2-19.79,2-39.43c.77-8.3-.46-13.25-2.53-17.66s-2.52-5-6-5.36c-4.77-.44-8.15,0-12.33,6.13s-9.84,15-11,28c-1.49,16.15-3.21,16-4.7,32.15s12.58,21.05,3.31,34.37c-5.25,7.55-14.52,3.76-18.63-4.47-7.85-15.72,1.81-16.51,1.77-34.09s-2.8-17.57-2.83-35.14.14-17.58.1-35.15-17.93-28.2-3.25-37.86c13.78-9.06,25,3.17,33.21,17.5,7.24,12.71-16.42,20.22-8.89,32.77,7.79-20.63,27-32.19,37.53-31.21,7.12.66,9.46,2.52,13.88,10s6,22.11,4.35,39.63c-1.88,20.29-7.73,19.89-6.11,40.2C327.65,334.68,333.89,337.55,323.83,355.27Z"/><path class="cls-3" d="M323.83,355.27c-4.54,8-17.86,5.46-21-3.2-6.65-18.57,1.39-19.68,3.2-39.32s.2-19.79,2-39.43c.77-8.3-.46-13.25-2.53-17.66s-2.52-5-6-5.36c-4.77-.44-8.15,0-12.33,6.13s-9.84,15-11,28c-1.49,16.15-3.21,16-4.7,32.15s12.58,21.05,3.31,34.37c-5.25,7.55-14.52,3.76-18.63-4.47-7.85-15.72,1.81-16.51,1.77-34.09s-2.8-17.57-2.83-35.14.14-17.58.1-35.15-17.93-28.2-3.25-37.86c13.78-9.06,25,3.17,33.21,17.5,7.24,12.71-16.42,20.22-8.89,32.77,7.79-20.63,27-32.19,37.53-31.21,7.12.66,9.46,2.52,13.88,10s6,22.11,4.35,39.63c-1.88,20.29-7.73,19.89-6.11,40.2C327.65,334.68,333.89,337.55,323.83,355.27Z"/><path class="cls-3" d="M323.83,355.27c-4.54,8-17.86,5.46-21-3.2-6.65-18.57,1.39-19.68,3.2-39.32s.2-19.79,2-39.43c.77-8.3-.46-13.25-2.53-17.66s-2.52-5-6-5.36c-4.77-.44-8.15,0-12.33,6.13s-9.84,15-11,28c-1.49,16.15-3.21,16-4.7,32.15s12.58,21.05,3.31,34.37c-5.25,7.55-14.52,3.76-18.63-4.47-7.85-15.72,1.81-16.51,1.77-34.09s-2.8-17.57-2.83-35.14.14-17.58.1-35.15-17.93-28.2-3.25-37.86c13.78-9.06,25,3.17,33.21,17.5,7.24,12.71-16.42,20.22-8.89,32.77,7.79-20.63,27-32.19,37.53-31.21,7.12.66,9.46,2.52,13.88,10s6,22.11,4.35,39.63c-1.88,20.29-7.73,19.89-6.11,40.2C327.65,334.68,333.89,337.55,323.83,355.27Z"/></svg>